<svg width="42" height="42" viewBox="0 0 42 42" fill="none" xmlns="http://www.w3.org/2000/svg">
<path d="M40.4168 15.8959L36.4793 14.5834L38.3334 10.8751C38.5214 10.4869 38.5842 10.05 38.5133 9.62461C38.4424 9.19921 38.2413 8.8063 37.9376 8.50009L33.5001 4.06259C33.1922 3.75443 32.7956 3.55052 32.3658 3.47952C31.9361 3.40851 31.4949 3.474 31.1043 3.66675L27.3959 5.52092L26.0834 1.58342C25.9448 1.17299 25.6817 0.815975 25.3307 0.562063C24.9797 0.308152 24.5583 0.169972 24.1251 0.166755H17.8751C17.4383 0.165628 17.0123 0.301794 16.6571 0.556009C16.302 0.810224 16.0357 1.16963 15.8959 1.58342L14.5834 5.52092L10.8751 3.66675C10.4869 3.4788 10.05 3.41593 9.62461 3.48683C9.19921 3.55773 8.8063 3.7589 8.50009 4.06259L4.06259 8.50009C3.75443 8.80793 3.55052 9.20462 3.47952 9.63437C3.40851 10.0641 3.474 10.5053 3.66675 10.8959L5.52092 14.6043L1.58342 15.9168C1.17299 16.0554 0.815975 16.3185 0.562063 16.6695C0.308152 17.0205 0.169972 17.4419 0.166755 17.8751V24.1251C0.165628 24.5618 0.301794 24.9879 0.556009 25.3431C0.810224 25.6982 1.16963 25.9645 1.58342 26.1043L5.52092 27.4168L3.66675 31.1251C3.4788 31.5132 3.41593 31.9502 3.48683 32.3756C3.55773 32.801 3.7589 33.1939 4.06259 33.5001L8.50009 37.9376C8.80793 38.2457 9.20462 38.4497 9.63437 38.5207C10.0641 38.5917 10.5053 38.5262 10.8959 38.3334L14.6043 36.4793L15.9168 40.4168C16.0565 40.8305 16.3228 41.19 16.6779 41.4442C17.0331 41.6984 17.4592 41.8345 17.8959 41.8334H24.1459C24.5827 41.8345 25.0087 41.6984 25.3639 41.4442C25.719 41.19 25.9853 40.8305 26.1251 40.4168L27.4376 36.4793L31.1459 38.3334C31.5316 38.5166 31.9643 38.5769 32.3853 38.5061C32.8064 38.4353 33.1955 38.2369 33.5001 37.9376L37.9376 33.5001C38.2457 33.1922 38.4497 32.7956 38.5207 32.3658C38.5917 31.9361 38.5262 31.4949 38.3334 31.1043L36.4793 27.3959L40.4168 26.0834C40.8272 25.9448 41.1842 25.6817 41.4381 25.3307C41.692 24.9797 41.8302 24.5583 41.8334 24.1251V17.8751C41.8345 17.4383 41.6984 17.0123 41.4442 16.6571C41.19 16.302 40.8305 16.0357 40.4168 15.8959ZM37.6668 22.6251L35.1668 23.4584C34.5919 23.6449 34.0644 23.9542 33.621 24.3649C33.1776 24.7756 32.8289 25.2778 32.599 25.8367C32.369 26.3956 32.2635 26.9979 32.2896 27.6017C32.3157 28.2055 32.4728 28.7964 32.7501 29.3334L33.9376 31.7084L31.6459 34.0001L29.3334 32.7501C28.7992 32.4839 28.2139 32.3356 27.6174 32.3153C27.0209 32.2949 26.4269 32.403 25.8757 32.6322C25.3246 32.8613 24.8291 33.2062 24.4228 33.6435C24.0166 34.0808 23.709 34.6003 23.5209 35.1668L22.6876 37.6668H19.3751L18.5418 35.1668C18.3553 34.5919 18.046 34.0644 17.6353 33.621C17.2246 33.1776 16.7224 32.8289 16.1635 32.599C15.6045 32.369 15.0023 32.2635 14.3985 32.2896C13.7947 32.3157 13.2038 32.4728 12.6668 32.7501L10.2918 33.9376L8.00009 31.6459L9.25009 29.3334C9.52737 28.7964 9.6845 28.2055 9.7106 27.6017C9.7367 26.9979 9.63112 26.3956 9.40121 25.8367C9.1713 25.2778 8.82254 24.7756 8.37914 24.3649C7.93574 23.9542 7.4083 23.6449 6.83342 23.4584L4.33342 22.6251V19.3751L6.83342 18.5418C7.4083 18.3553 7.93574 18.046 8.37914 17.6353C8.82254 17.2246 9.1713 16.7224 9.40121 16.1635C9.63112 15.6045 9.7367 15.0023 9.7106 14.3985C9.6845 13.7947 9.52737 13.2038 9.25009 12.6668L8.06259 10.3543L10.3543 8.06259L12.6668 9.25009C13.2038 9.52737 13.7947 9.6845 14.3985 9.7106C15.0023 9.7367 15.6045 9.63112 16.1635 9.40121C16.7224 9.1713 17.2246 8.82254 17.6353 8.37914C18.046 7.93574 18.3553 7.4083 18.5418 6.83342L19.3751 4.33342H22.6251L23.4584 6.83342C23.6449 7.4083 23.9542 7.93574 24.3649 8.37914C24.7756 8.82254 25.2778 9.1713 25.8367 9.40121C26.3956 9.63112 26.9979 9.7367 27.6017 9.7106C28.2055 9.6845 28.7964 9.52737 29.3334 9.25009L31.7084 8.06259L34.0001 10.3543L32.7501 12.6668C32.4839 13.201 32.3356 13.7862 32.3153 14.3828C32.2949 14.9793 32.403 15.5733 32.6322 16.1244C32.8613 16.6756 33.2062 17.1711 33.6435 17.5773C34.0808 17.9836 34.6003 18.2912 35.1668 18.4793L37.6668 19.3126V22.6251ZM21.0001 12.6668C19.3519 12.6668 17.7407 13.1555 16.3703 14.0712C14.9999 14.9869 13.9318 16.2883 13.3011 17.8111C12.6704 19.3338 12.5053 21.0093 12.8269 22.6258C13.1484 24.2423 13.9421 25.7272 15.1075 26.8926C16.273 28.0581 17.7578 28.8518 19.3743 29.1733C20.9908 29.4948 22.6664 29.3298 24.1891 28.6991C25.7118 28.0684 27.0133 27.0002 27.929 25.6298C28.8447 24.2594 29.3334 22.6483 29.3334 21.0001C29.3334 18.7899 28.4554 16.6703 26.8926 15.1075C25.3298 13.5447 23.2102 12.6668 21.0001 12.6668ZM21.0001 25.1668C20.176 25.1668 19.3704 24.9224 18.6852 24.4645C18 24.0067 17.466 23.356 17.1506 22.5946C16.8352 21.8332 16.7527 20.9955 16.9135 20.1872C17.0743 19.379 17.4711 18.6365 18.0538 18.0538C18.6365 17.4711 19.379 17.0743 20.1872 16.9135C20.9955 16.7527 21.8332 16.8352 22.5946 17.1506C23.356 17.466 24.0067 18 24.4645 18.6852C24.9224 19.3704 25.1668 20.176 25.1668 21.0001C25.1668 22.1052 24.7278 23.165 23.9464 23.9464C23.165 24.7278 22.1052 25.1668 21.0001 25.1668Z" fill="white"/>
</svg>
