<svg width="40" height="40" viewBox="0 0 40 40" fill="none" xmlns="http://www.w3.org/2000/svg">
<path d="M1.00075 13.8395L19 24.0416C19.3041 24.2138 19.6489 24.3045 20 24.3045C20.3511 24.3045 20.6959 24.2138 21 24.0416L38.9992 13.8395C39.3015 13.6683 39.5528 13.4225 39.7283 13.1265C39.9037 12.8305 39.9971 12.4946 39.9992 12.1522C40.0006 11.8065 39.9089 11.4666 39.7333 11.1668C39.5577 10.8671 39.3044 10.6182 38.9992 10.4453L21 0.262851C20.6959 0.0906542 20.3511 0 20 0C19.6489 0 19.3041 0.0906542 19 0.262851L1.00075 10.4453C0.695557 10.6182 0.442339 10.8671 0.266739 11.1668C0.0911396 11.4666 -0.000605689 11.8065 0.000793391 12.1522C0.00290005 12.4946 0.0963074 12.8305 0.271732 13.1265C0.447157 13.4225 0.69849 13.6683 1.00075 13.8395ZM20 4.30445L33.9994 12.1522L20 20L6.00056 12.1522L20 4.30445ZM36.9993 18.3716L20 27.8478L3.00067 18.2931C2.77242 18.1634 2.52025 18.0792 2.25871 18.0455C1.99716 18.0118 1.7314 18.0292 1.47673 18.0967C1.22206 18.1641 0.98351 18.2804 0.774824 18.4387C0.566139 18.597 0.391438 18.7942 0.260783 19.019C4.86653e-05 19.4695 -0.0684812 20.0029 0.0701471 20.5028C0.208775 21.0026 0.543309 21.4284 1.00075 21.6873L19 31.8894C19.3041 32.0616 19.6489 32.1522 20 32.1522C20.3511 32.1522 20.6959 32.0616 21 31.8894L38.9992 21.6873C39.4567 21.4284 39.7912 21.0026 39.9299 20.5028C40.0685 20.0029 40 19.4695 39.7392 19.019C39.6086 18.7942 39.4339 18.597 39.2252 18.4387C39.0165 18.2804 38.7779 18.1641 38.5233 18.0967C38.2686 18.0292 38.0028 18.0118 37.7413 18.0455C37.4797 18.0792 37.2276 18.1634 36.9993 18.2931V18.3716ZM36.9993 26.2194L20 35.6955L3.00067 26.1409C2.77242 26.0112 2.52025 25.927 2.25871 25.8933C1.99716 25.8596 1.7314 25.877 1.47673 25.9444C1.22206 26.0119 0.98351 26.1282 0.774824 26.2865C0.566139 26.4447 0.391438 26.642 0.260783 26.8668C4.86653e-05 27.3173 -0.0684812 27.8507 0.0701471 28.3505C0.208775 28.8504 0.543309 29.2762 1.00075 29.535L19 39.7371C19.3041 39.9093 19.6489 40 20 40C20.3511 40 20.6959 39.9093 21 39.7371L38.9992 29.535C39.4567 29.2762 39.7912 28.8504 39.9299 28.3505C40.0685 27.8507 40 27.3173 39.7392 26.8668C39.6086 26.642 39.4339 26.4447 39.2252 26.2865C39.0165 26.1282 38.7779 26.0119 38.5233 25.9444C38.2686 25.877 38.0028 25.8596 37.7413 25.8933C37.4797 25.927 37.2276 26.0112 36.9993 26.1409V26.2194Z" fill="white"/>
</svg>
