<svg width="7" height="35" viewBox="0 0 7 35" fill="none" xmlns="http://www.w3.org/2000/svg">
<path d="M3.5 7.77778C4.19223 7.77778 4.86892 7.5497 5.44449 7.12238C6.02007 6.69507 6.46867 6.08771 6.73358 5.3771C6.99848 4.6665 7.06779 3.88458 6.93275 3.13021C6.7977 2.37584 6.46435 1.6829 5.97487 1.13903C5.48539 0.59516 4.86175 0.224779 4.18282 0.0747256C3.50388 -0.075328 2.80015 0.00168498 2.16061 0.296026C1.52107 0.590366 0.974443 1.08881 0.589858 1.72834C0.205273 2.36786 1.88613e-06 3.11974 1.88613e-06 3.88889C1.88613e-06 4.92029 0.368751 5.90944 1.02513 6.63875C1.68151 7.36806 2.57174 7.77778 3.5 7.77778ZM3.5 27.2222C2.80777 27.2222 2.13108 27.4503 1.55551 27.8776C0.979934 28.3049 0.53133 28.9123 0.266423 29.6229C0.00151648 30.3335 -0.0677951 31.1154 0.067253 31.8698C0.202301 32.6242 0.535645 33.3171 1.02513 33.861C1.51461 34.4048 2.13825 34.7752 2.81718 34.9253C3.49612 35.0753 4.19985 34.9983 4.83939 34.704C5.47893 34.4096 6.02556 33.9112 6.41014 33.2717C6.79473 32.6321 7 31.8803 7 31.1111C7 30.0797 6.63125 29.0906 5.97487 28.3612C5.31849 27.6319 4.42826 27.2222 3.5 27.2222ZM3.5 13.6111C2.80777 13.6111 2.13108 13.8392 1.55551 14.2665C0.979934 14.6938 0.53133 15.3012 0.266423 16.0118C0.00151648 16.7224 -0.0677951 17.5043 0.067253 18.2587C0.202301 19.0131 0.535645 19.706 1.02513 20.2499C1.51461 20.7937 2.13825 21.1641 2.81718 21.3142C3.49612 21.4642 4.19985 21.3872 4.83939 21.0929C5.47893 20.7985 6.02556 20.3001 6.41014 19.6605C6.79473 19.021 7 18.2691 7 17.5C7 16.4686 6.63125 15.4794 5.97487 14.7501C5.31849 14.0208 4.42826 13.6111 3.5 13.6111Z" fill="white"/>
</svg>
